<?xml version="1.0" standalone="no"?>
<!DOCTYPE svg PUBLIC "-//W3C//DTD SVG 1.1//EN" "http://www.w3.org/Graphics/SVG/1.1/DTD/svg11.dtd">
<svg width="252mm" height="100mm" viewBox="-126 -50 252 100" xmlns="http://www.w3.org/2000/svg" version="1.1">
<title>OpenSCAD Model</title>
<path d="
M -21,46.5 L -21,49.5 L 21,49.5 L 21,46.5 L 63,46.5 L 63,49.5
 L 105,49.5 L 105,46.5 L 126,46.5 L 126,41.25 L 123,41.25 L 123,24.75
 L 126,24.75 L 126,17.5 L 105,17.5 L 105,14.5 L 126,14.5 L 126,8.25
 L 123,8.25 L 123,-8.25 L 126,-8.25 L 126,-14.5 L 105,-14.5 L 105,-17.5
 L 126,-17.5 L 126,-24.75 L 123,-24.75 L 123,-41.25 L 126,-41.25 L 126,-49.5
 L -126,-49.5 L -126,-41.25 L -123,-41.25 L -123,-24.75 L -126,-24.75 L -126,-17.5
 L -105,-17.5 L -105,-14.5 L -126,-14.5 L -126,-8.25 L -123,-8.25 L -123,8.25
 L -126,8.25 L -126,14.5 L -105,14.5 L -105,17.5 L -126,17.5 L -126,24.75
 L -123,24.75 L -123,41.25 L -126,41.25 L -126,46.5 L -105,46.5 L -105,49.5
 L -63,49.5 L -63,46.5 z
M 21,-14.5 L 21,-17.5 L 63,-17.5 L 63,-14.5 z
M -63,-14.5 L -63,-17.5 L -21,-17.5 L -21,-14.5 z
M 21,17.5 L 21,14.5 L 63,14.5 L 63,17.5 z
M -63,17.5 L -63,14.5 L -21,14.5 L -21,17.5 z
" stroke="black" fill="lightgray" stroke-width="0.5"/>
</svg>
