<?xml version="1.0" standalone="no"?>
<!DOCTYPE svg PUBLIC "-//W3C//DTD SVG 1.1//EN" "http://www.w3.org/Graphics/SVG/1.1/DTD/svg11.dtd">
<svg width="252mm" height="60mm" viewBox="-126 -30 252 60" xmlns="http://www.w3.org/2000/svg" version="1.1">
<title>OpenSCAD Model</title>
<path d="
M -105,30 L -105,27 L -63,27 L -63,30 L -21,30 L -21,27
 L 21,27 L 21,30 L 63,30 L 63,27 L 105,27 L 105,30
 L 126,30 L 126,25 L 123,25 L 123,15 L 126,15 L 126,5
 L 123,5 L 123,-5 L 126,-5 L 126,-15 L 123,-15 L 123,-25
 L 126,-25 L 126,-30 L -126,-30 L -126,-25 L -123,-25 L -123,-15
 L -126,-15 L -126,-5 L -123,-5 L -123,5 L -126,5 L -126,15
 L -123,15 L -123,25 L -126,25 L -126,30 z
" stroke="black" fill="lightgray" stroke-width="0.5"/>
</svg>
