<?xml version="1.0" standalone="no"?>
<!DOCTYPE svg PUBLIC "-//W3C//DTD SVG 1.1//EN" "http://www.w3.org/Graphics/SVG/1.1/DTD/svg11.dtd">
<svg width="60mm" height="100mm" viewBox="-30 -50 60 100" xmlns="http://www.w3.org/2000/svg" version="1.1">
<title>OpenSCAD Model</title>
<path d="
M -5,46.5 L -5,49.5 L 5,49.5 L 5,46.5 L 15,46.5 L 15,49.5
 L 25,49.5 L 25,46.5 L 27,46.5 L 27,41.25 L 30,41.25 L 30,24.75
 L 27,24.75 L 27,17.5 L 25,17.5 L 25,14.5 L 27,14.5 L 27,8.25
 L 30,8.25 L 30,-8.25 L 27,-8.25 L 27,-14.5 L 25,-14.5 L 25,-17.5
 L 27,-17.5 L 27,-24.75 L 30,-24.75 L 30,-41.25 L 27,-41.25 L 27,-49.5
 L -30,-49.5 L -30,-17.5 L -25,-17.5 L -25,-14.5 L -30,-14.5 L -30,14.5
 L -25,14.5 L -25,17.5 L -30,17.5 L -30,46.5 L -25,46.5 L -25,49.5
 L -15,49.5 L -15,46.5 z
M 5,-14.5 L 5,-17.5 L 15,-17.5 L 15,-14.5 z
M -15,-14.5 L -15,-17.5 L -5,-17.5 L -5,-14.5 z
M 5,17.5 L 5,14.5 L 15,14.5 L 15,17.5 z
M -15,17.5 L -15,14.5 L -5,14.5 L -5,17.5 z
" stroke="black" fill="lightgray" stroke-width="0.5"/>
</svg>
