<?xml version="1.0" standalone="no"?>
<!DOCTYPE svg PUBLIC "-//W3C//DTD SVG 1.1//EN" "http://www.w3.org/Graphics/SVG/1.1/DTD/svg11.dtd">
<svg width="252mm" height="60mm" viewBox="-126 -30 252 60" xmlns="http://www.w3.org/2000/svg" version="1.1">
<title>OpenSCAD Model</title>
<path d="
M -105,27 L -63,27 L -63,30 L -21,30 L -21,27 L 21,27
 L 21,30 L 63,30 L 63,27 L 105,27 L 105,30 L 126,30
 L 126,25 L 123,25 L 123,15 L 126,15 L 126,5 L 123,5
 L 123,-5 L 126,-5 L 126,-15 L 123,-15 L 123,-25 L 126,-25
 L 126,-30 L -126,-30 L -126,-25 L -123,-25 L -123,-15 L -126,-15
 L -126,-5 L -123,-5 L -123,5 L -126,5 L -126,15 L -123,15
 L -123,25 L -126,25 L -126,30 L -105,30 z
M -1.8815,17.9014 L -5.5623,17.119 L -9,15.5885 L -12.0443,13.3766 L -14.5623,10.5801 L -16.4438,7.32126
 L -17.6066,3.7424 L -18,-0 L -17.6066,-3.7424 L -16.4438,-7.32126 L -14.5623,-10.5801 L -12.0443,-13.3766
 L -9,-15.5885 L -5.5623,-17.119 L -1.8815,-17.9014 L 1.8815,-17.9014 L 5.5623,-17.119 L 9,-15.5885
 L 12.0443,-13.3766 L 14.5623,-10.5801 L 16.4438,-7.32126 L 17.6066,-3.7424 L 18,-0 L 17.6066,3.7424
 L 16.4438,7.32126 L 14.5623,10.5801 L 12.0443,13.3766 L 9,15.5885 L 5.5623,17.119 L 1.8815,17.9014
 z
M 43.1185,17.9014 L 39.4377,17.119 L 36,15.5885 L 32.9556,13.3766 L 30.4377,10.5801 L 28.5562,7.32126
 L 27.3933,3.7424 L 27,-0 L 27.3933,-3.7424 L 28.5562,-7.32126 L 30.4377,-10.5801 L 32.9556,-13.3766
 L 36,-15.5885 L 39.4377,-17.119 L 43.1185,-17.9014 L 46.8815,-17.9014 L 50.5623,-17.119 L 54,-15.5885
 L 57.0443,-13.3766 L 59.5623,-10.5801 L 61.4438,-7.32126 L 62.6066,-3.7424 L 63,-0 L 62.6066,3.7424
 L 61.4438,7.32126 L 59.5623,10.5801 L 57.0443,13.3766 L 54,15.5885 L 50.5623,17.119 L 46.8815,17.9014
 z
M 88.1185,17.9014 L 84.4377,17.119 L 81,15.5885 L 77.9556,13.3766 L 75.4377,10.5801 L 73.5562,7.32126
 L 72.3933,3.7424 L 72,-0 L 72.3933,-3.7424 L 73.5562,-7.32126 L 75.4377,-10.5801 L 77.9556,-13.3766
 L 81,-15.5885 L 84.4377,-17.119 L 88.1185,-17.9014 L 91.8815,-17.9014 L 95.5623,-17.119 L 99,-15.5885
 L 102.044,-13.3766 L 104.562,-10.5801 L 106.444,-7.32126 L 107.607,-3.7424 L 108,-0 L 107.607,3.7424
 L 106.444,7.32126 L 104.562,10.5801 L 102.044,13.3766 L 99,15.5885 L 95.5623,17.119 L 91.8815,17.9014
 z
M -46.8815,17.9014 L -50.5623,17.119 L -54,15.5885 L -57.0443,13.3766 L -59.5623,10.5801 L -61.4438,7.32126
 L -62.6066,3.7424 L -63,-0 L -62.6066,-3.7424 L -61.4438,-7.32126 L -59.5623,-10.5801 L -57.0443,-13.3766
 L -54,-15.5885 L -50.5623,-17.119 L -46.8815,-17.9014 L -43.1185,-17.9014 L -39.4377,-17.119 L -36,-15.5885
 L -32.9556,-13.3766 L -30.4377,-10.5801 L -28.5562,-7.32126 L -27.3933,-3.7424 L -27,-0 L -27.3933,3.7424
 L -28.5562,7.32126 L -30.4377,10.5801 L -32.9556,13.3766 L -36,15.5885 L -39.4377,17.119 L -43.1185,17.9014
 z
M -91.8815,17.9014 L -95.5623,17.119 L -99,15.5885 L -102.044,13.3766 L -104.562,10.5801 L -106.444,7.32126
 L -107.607,3.7424 L -108,-0 L -107.607,-3.7424 L -106.444,-7.32126 L -104.562,-10.5801 L -102.044,-13.3766
 L -99,-15.5885 L -95.5623,-17.119 L -91.8815,-17.9014 L -88.1185,-17.9014 L -84.4377,-17.119 L -81,-15.5885
 L -77.9556,-13.3766 L -75.4377,-10.5801 L -73.5562,-7.32126 L -72.3933,-3.7424 L -72,-0 L -72.3933,3.7424
 L -73.5562,7.32126 L -75.4377,10.5801 L -77.9556,13.3766 L -81,15.5885 L -84.4377,17.119 L -88.1185,17.9014
 z
" stroke="black" fill="lightgray" stroke-width="0.5"/>
</svg>
